<svg width="20" height="18" viewBox="0 0 20 18" fill="none" xmlns="http://www.w3.org/2000/svg">
<path fill-rule="evenodd" clip-rule="evenodd" d="M20 12.55V11.505C20 11.4083 19.9067 11.3384 19.815 11.365L14.88 12.7917C14.8534 12.7983 14.83 12.8133 14.8117 12.8333C14.2831 13.4172 13.8339 13.809 13.7149 13.9128L13.7067 13.92C13.4 14.18 13.02 14.3217 12.62 14.3217H10.8333V12.5H12.2534C12.29 12.5 12.325 12.4867 12.3517 12.4634L12.535 12.295C12.6134 12.2233 12.7067 12.1367 12.8183 12.025C12.8278 12.0155 12.8374 12.0059 12.8472 11.9962C12.9058 11.9378 12.9686 11.8753 13.03 11.8067C13.1034 11.735 13.175 11.655 13.2417 11.5767C13.3533 11.4567 13.46 11.3317 13.5717 11.2C13.6517 11.1134 13.725 11.015 13.7967 10.9167C13.8767 10.8233 13.955 10.7183 14.0283 10.6184C14.0557 10.5782 14.0847 10.5377 14.1144 10.4963C14.1427 10.4568 14.1715 10.4165 14.2 10.375C14.2533 10.295 14.3067 10.21 14.3517 10.13C14.4917 9.91334 14.61 9.68166 14.71 9.45001C14.7559 9.35079 14.7926 9.24632 14.8283 9.14477C14.8328 9.13202 14.8372 9.11932 14.8417 9.10668C14.8817 8.98833 14.915 8.87669 14.94 8.75833C15 8.47999 15.0133 8.20334 14.9867 7.92666C14.98 7.84 14.9733 7.75499 14.9534 7.67502V7.66169C14.9467 7.60501 14.9333 7.54167 14.915 7.48334C14.855 7.21334 14.7617 6.94334 14.6434 6.67834C14.6034 6.58 14.5567 6.48 14.5117 6.38835C14.405 6.19002 14.2933 5.99165 14.1667 5.80001C14.1413 5.75952 14.1132 5.71851 14.0852 5.67757C14.0636 5.64603 14.042 5.61453 14.0217 5.58335C13.9415 5.45962 13.8513 5.34035 13.7638 5.22461C13.744 5.19845 13.7244 5.17248 13.705 5.14668C13.6533 5.07884 13.5968 5.01102 13.5399 4.94274C13.5087 4.90532 13.4774 4.86776 13.4467 4.82999C13.36 4.725 13.275 4.62501 13.1884 4.52667C12.8784 4.17667 12.5534 3.86001 12.2634 3.59001C12.21 3.53667 12.1517 3.48333 12.0917 3.43168C11.8667 3.22667 11.6617 3.04832 11.49 2.91001C11.4384 2.87033 11.3922 2.83124 11.3491 2.79485C11.3198 2.7701 11.292 2.7466 11.265 2.72502C11.213 2.68623 11.1678 2.65184 11.1299 2.62296C11.1059 2.60466 11.0848 2.58857 11.0667 2.57499C11.0533 2.565 11.0384 2.55835 11.0234 2.55332L10.8333 2.50002V0.926669C10.8333 0.670004 10.73 0.440007 10.565 0.271655C10.4 0.103334 10.17 0 9.9167 0C9.41002 0 9.00002 0.414993 9.00002 0.926669V1.98665L8.90503 1.96002L8.64667 1.88666L8.41168 1.82167C8.41099 1.82167 8.4103 1.82138 8.40949 1.82105C8.40835 1.82057 8.40697 1.81999 8.40503 1.81999H8.40003L6.61667 1.33667C6.53835 1.31499 6.47168 1.4 6.51169 1.47167L6.79667 1.99833C6.81287 2.03881 6.83336 2.07929 6.85442 2.12088C6.86805 2.1478 6.88192 2.17519 6.89501 2.20335C6.9417 2.29666 6.98835 2.39499 7.03335 2.49333C7.07336 2.57999 7.11336 2.66499 7.16002 2.75834C7.17963 2.80222 7.19963 2.84663 7.21992 2.89168C7.29441 3.05709 7.37274 3.23102 7.45 3.41835C7.51668 3.57668 7.58335 3.735 7.64168 3.90001C7.8017 4.31501 7.95334 4.75832 8.08503 5.21335C8.1178 5.31519 8.14399 5.41372 8.17054 5.51361C8.18179 5.55594 8.1931 5.59851 8.20501 5.64168L8.22334 5.72165C8.27668 5.93335 8.32337 6.14333 8.35669 6.355C8.38336 6.49999 8.40834 6.63833 8.42167 6.77833C8.44169 6.93666 8.46168 7.09502 8.46836 7.25334C8.48169 7.39834 8.48834 7.55001 8.48834 7.69501C8.48834 8.065 8.45502 8.42166 8.37667 8.75833C8.37176 8.77643 8.36685 8.79476 8.36191 8.81324C8.33997 8.89515 8.31723 8.98007 8.29001 9.06168C8.2654 9.14908 8.2335 9.23647 8.20037 9.32723C8.18865 9.35934 8.17677 9.39188 8.16501 9.42499C8.16281 9.43089 8.16062 9.43679 8.15842 9.44271C8.13391 9.50872 8.10896 9.57591 8.07835 9.64169C7.91334 10.0383 7.70835 10.4334 7.49669 10.8033C7.18669 11.3517 6.87503 11.8334 6.65668 12.1434C6.64333 12.1634 6.6303 12.1824 6.61775 12.2008C6.60212 12.2236 6.58722 12.2454 6.57336 12.2667C6.50503 12.3633 6.57502 12.5 6.69334 12.5H9.00002V14.3217H6.66667C6.04001 14.3217 5.46001 13.9667 5.18002 13.3983C5.03502 13.1133 4.97834 12.8 5.0117 12.4933C5.02 12.4017 4.95167 12.315 4.85836 12.315H0.145008C0.0650007 12.315 1.52588e-05 12.38 1.52588e-05 12.46V12.5567C1.52588e-05 15.5634 2.42836 18 5.425 18H13.88C15.4649 18 16.3648 16.5558 17.2494 15.1362C17.496 14.7405 17.7413 14.3467 18 13.9867C18.465 13.34 19.5834 12.8267 19.91 12.6867C19.9634 12.6633 20 12.61 20 12.55ZM1.26017 10.1682L1.19019 10.2783C1.12851 10.3733 1.19684 10.4999 1.31351 10.4999H5.6535C5.70184 10.4999 5.74684 10.4766 5.77351 10.4366C5.83019 10.3499 5.88352 10.2599 5.93183 10.1682C6.30686 9.53825 6.64019 8.8566 6.76185 8.35326C7.04684 7.12992 6.43851 5.16491 5.7335 3.58491C5.68685 3.47992 5.54185 3.46993 5.48018 3.56658L1.26017 10.1682Z" fill="#24211F"/>
</svg>
