<svg width="20" height="17" viewBox="0 0 20 17" fill="none" xmlns="http://www.w3.org/2000/svg">
<path d="M20.0001 2.24722C19.2905 2.56162 18.5283 2.77405 17.727 2.87007C18.5538 2.37535 19.1724 1.59672 19.4673 0.679467C18.6905 1.14086 17.8403 1.46563 16.9538 1.63966C16.3576 1.0031 15.5679 0.581175 14.7074 0.439396C13.8468 0.297616 12.9635 0.443914 12.1946 0.855576C11.4258 1.26724 10.8143 1.92123 10.4552 2.71602C10.0961 3.51081 10.0094 4.40193 10.2086 5.25102C8.63465 5.17199 7.09488 4.76289 5.68926 4.05027C4.28363 3.33765 3.04355 2.33743 2.0495 1.11453C1.7096 1.70084 1.51416 2.38063 1.51416 3.1046C1.51379 3.75634 1.67428 4.3981 1.98141 4.97293C2.28855 5.54777 2.73282 6.03791 3.27481 6.39986C2.64624 6.37986 2.03154 6.21001 1.48187 5.90447V5.95545C1.48181 6.86954 1.798 7.7555 2.3768 8.463C2.95559 9.1705 3.76134 9.65597 4.65732 9.83702C4.07422 9.99483 3.46289 10.0181 2.86949 9.905C3.12228 10.6915 3.6147 11.3793 4.2778 11.8721C4.94091 12.3648 5.74151 12.6379 6.56752 12.653C5.16532 13.7538 3.43361 14.3509 1.65097 14.3482C1.33519 14.3483 1.01969 14.3299 0.70607 14.293C2.51555 15.4564 4.62192 16.0739 6.77315 16.0715C14.0553 16.0715 18.0363 10.0401 18.0363 4.80916C18.0363 4.63921 18.0321 4.46757 18.0244 4.29762C18.7988 3.73763 19.4672 3.04418 19.9984 2.24977L20.0001 2.24722Z" fill="#24211F"/>
</svg>
